<?xml version="1.0" encoding="iso-8859-1"?>
<!DOCTYPE svg PUBLIC "-//W3C//DTD SVG 1.1//EN" "http://www.w3.org/Graphics/SVG/1.1/DTD/svg11.dtd">
<svg width="18" height="18" viewBox="0 0 18 18" fill="none" xmlns="http://www.w3.org/2000/svg">
	<path fill-rule="evenodd" clip-rule="evenodd" d="M11.71 11H12.5L17.49 16L16 17.4902L11 12.5V11.71L10.73 11.4302C9.59 12.4102 8.11 13 6.5 13C2.91 13 0 10.0898 0 6.5C0 2.91016 2.91 0 6.5 0C10.09 0 13 2.91016 13 6.5C13 8.10986 12.41 9.58984 11.43 10.73L11.71 11ZM2 6.5C2 8.99023 4.00999 11 6.5 11C8.99001 11 11 8.99023 11 6.5C11 4.00977 8.99001 2 6.5 2C4.00999 2 2 4.00977 2 6.5Z" fill="#0079FC"/>
</svg>
